<svg xmlns="http://www.w3.org/2000/svg" xml:space="preserve" width="1500" height="139" data-id="lg_5qBXR13hRIqRsEhs4j" data-version="1"><g data-padding="20"><g transform="translate(10 2.253)scale(.96759)"><circle cx="377.529" cy="-376.961" r="100" fill="#6c7d89" stroke="#01ff70" transform="matrix(.89 0 0 .89 209.28 390.15)"/><path fill="#004a8f" stroke="transparent" d="M606.98 112.935q-7.75 0-13.34-3.13-5.6-3.14-9.23-8.61-3.63-5.48-5.29-12.43t-1.41-14.45q.49-13.41 4.92-23.12 4.43-9.72 11.19-15.99 6.76-6.28 14.58-9.29 7.81-3.01 15.06-3.01 6.15 0 11.13 2.03 4.99 2.03 7.94 5.9t2.95 9.41q0 4.3-2.52 8.3t-7.63 6.52q-5.1 2.52-13.1 2.52 1.36-3.93 1.97-6.89.62-2.95.62-5.04 0-4.3-1.97-5.84t-4.92-1.54q-3.57 0-6.77 2.58-3.2 2.59-5.72 6.95-2.52 4.37-3.99 9.66-1.48 5.29-1.73 10.7-.49 13.65 3.94 20.66 4.43 7.02 11.44 7.02 5.41 0 11.99-4.43t12.98-13.41l1.6.74q-1.6 11.07-7.01 18.69-5.42 7.63-12.73 11.57-7.32 3.93-14.95 3.93m64.33.12q-8.98 0-14.88-3.63-5.91-3.63-8.86-9.6-2.95-5.96-2.95-12.85 0-6.52 2.52-13.1t7.38-11.99 11.81-8.74q6.95-3.32 15.68-3.32 10.83 0 15.81 4.86t4.98 11.75q0 5.9-3.14 10.88-3.13 4.99-8.3 8t-11.32 3.01q-3.19 0-6.52-.98-3.32-.99-6.52-3.08.62 7.63 4.43 11.07 3.82 3.45 9.11 3.45 3.69 0 7.38-1.42 3.69-1.41 6.82-3.69 3.14-2.27 4.86-4.86l.86.62q0 6.4-2.64 10.89-2.65 4.48-6.95 7.31-4.31 2.83-9.41 4.12-5.11 1.3-10.15 1.3m2.83-33.21q3.93 0 6.4-2.28 2.46-2.28 3.69-5.35 1.23-3.08 1.23-5.41 0-2.83-1.6-4.74-1.6-1.9-4.43-1.9-2.22 0-4.86 1.59-2.64 1.6-4.74 5.48-2.09 3.87-2.7 10.76 3.93 1.85 7.01 1.85m55.84 33.21q-8.98 0-14.88-3.63-5.91-3.63-8.86-9.6-2.95-5.96-2.95-12.85 0-6.52 2.52-13.1t7.38-11.99 11.81-8.74q6.95-3.32 15.68-3.32 10.83 0 15.81 4.86t4.98 11.75q0 5.9-3.14 10.88-3.13 4.99-8.3 8t-11.32 3.01q-3.19 0-6.51-.98-3.33-.99-6.52-3.08.61 7.63 4.42 11.07 3.82 3.45 9.11 3.45 3.69 0 7.38-1.42 3.69-1.41 6.82-3.69 3.14-2.27 4.86-4.86l.86.62q0 6.4-2.64 10.89-2.65 4.48-6.95 7.31-4.31 2.83-9.41 4.12-5.11 1.3-10.15 1.3m2.83-33.21q3.94 0 6.4-2.28t3.69-5.35q1.23-3.08 1.23-5.41 0-2.83-1.6-4.74-1.6-1.9-4.43-1.9-2.21 0-4.86 1.59-2.64 1.6-4.73 5.48-2.1 3.87-2.71 10.76 3.94 1.85 7.01 1.85m50.3 33.45q-7.63 0-12.67-2.09t-7.5-5.35-2.46-6.58q0-4.67 4.18-8.3t11.31-3.63q0 6.27 1.6 10.02t4.12 5.35 4.86 1.6q2.83 0 4.74-1.66 1.9-1.66 1.9-4.12 0-3.44-3.56-6.03-3.57-2.58-9.23-5.78-2.83-1.72-6.15-3.99-3.32-2.28-5.66-5.54-2.33-3.26-2.33-7.81 0-4.8 2.76-8.49 2.77-3.69 7.32-6.21t9.84-3.81 10.33-1.29q9.48 0 14.27 3.81 4.8 3.81 4.8 8.12 0 3.69-3.69 6.64t-11.32 2.95q.13-6.27-2.58-9.16t-5.78-2.89q-2.21 0-3.69 1.35t-1.48 3.94q0 2.95 1.91 5.1t4.8 3.82q2.89 1.66 5.96 3.13 4.18 1.97 7.87 4.18 3.69 2.22 6.03 5.05t2.34 6.88q0 5.54-4.49 10.28-4.49 4.73-11.99 7.62-7.51 2.89-16.36 2.89"/><path fill="#004a8f" stroke="transparent" d="M835.15 112.695q-3.94 0-7.45-1.79-3.5-1.78-5.65-5.59-2.16-3.82-2.16-9.72 0-3.2.62-8.36.61-5.17 1.66-11.32t2.15-12.3q-2.46.12-4.73.49-2.28.37-4.49.86l-.25-.86q2.46-2.95 5.17-5.04 2.7-2.09 5.66-3.45 1.59-8.11 2.7-14.08 1.11-5.96 1.11-7.07 0-2.09 3.26-3.45 3.26-1.35 7.32-1.35 3.56 0 6.7 1.35 3.14 1.36 4.24 4.56-.73.73-2.09 5.47-1.35 4.73-2.83 11.5l4.8.25q2.46.12 5.04.36.25.74.37 1.6.13.86.13 1.85 0 1.84-.56 4-.55 2.15-1.29 3.87-2.95-.25-5.53-.55-2.59-.31-5.05-.43-.98 5.29-1.78 10.57-.8 5.29-1.23 9.6-.43 4.3-.43 6.76 0 5.17 1.9 6.89 1.91 1.72 4.62 1.72 2.46 0 4.43-.98 1.96-.98 2.82-2.34l1.23.37q-.73 5.04-3.93 8.8-3.2 3.75-7.63 5.78t-8.85 2.03"/><path fill="#004a8f" stroke="transparent" d="M900.46 112.805q-4.31 0-7.5-2.83-3.2-2.83-3.2-9.22v-1.23q0-.62.12-1.23-3.69 7.38-8.3 10.88-4.61 3.51-9.29 3.51-4.3 0-8.12-3.02-3.81-3.01-6.15-8.91-2.33-5.91-2.33-14.27 0-8.61 2.4-15.38 2.39-6.76 6.33-11.44 3.94-4.67 8.61-7.07t9.1-2.4q4.92 0 8.86 3.02 3.93 3.01 5.41 9.53.37-2.09.55-3.81.19-1.73.19-2.34.12-3.32 3.38-4.92t7.2-1.6q3.44 0 6.52 1.35 3.07 1.36 4.18 4.55l.24.74q-1.47 3.32-2.95 8-1.47 4.67-2.7 9.78-1.23 5.1-1.97 9.96t-.74 8.55q0 4.06.86 5.59.86 1.54 2.09 1.54 2.09 0 3.81-2.95l.99.49q0 4.18-2.71 7.63-2.7 3.44-6.76 5.47t-8.12 2.03m-20.05-15.62q3.2 0 7.07-5.72 3.88-5.72 6.71-16.42.24-1.11.49-2.15.24-1.05.37-2.03-1.97-4.55-4.12-6.46-2.16-1.91-4.25-1.91-3.07 0-5.72 3.26-2.64 3.26-4.3 8.18t-1.66 9.84q0 6.77 1.54 10.09 1.53 3.32 3.87 3.32m53.63 15.5q-4.43 0-7.87-3.63-3.45-3.63-3.45-10.27 0-3.2.74-7.26t1.72-8.3q.99-4.25 1.72-8 .74-3.75.74-6.21 0-2.58-.92-4.12t-2.4-1.54q-2.34 0-4.8 3.2l-.73-.49q-.13-1.97.86-4.67.98-2.71 3.07-5.23t5.35-4.25q3.26-1.72 7.69-1.72 6.52 0 9.47 3.75 2.95 3.76 2.95 9.04 0 .87-.06 1.79t-.18 1.78q4.43-7.99 9.28-12.24 4.86-4.24 9.04-4.24 3.94 0 5.78 3.07 1.85 3.08 1.85 7.38 0 3.94-1.54 8t-4.55 6.7q-3.01 2.65-7.32 2.52l-.49-.24q-.12-3.2-2.09-5.04-1.97-1.85-4.43-1.85-3.32 0-6.21 3.32t-2.89 9.6q0 3.81.86 8.24.86 4.42.86 7.5 0 3.69-1.72 6.76-1.72 3.08-4.43 4.86-2.7 1.79-5.9 1.79"/><rect width="499.89" height="138.99" x="86.061" y="-404.985" fill="none" rx="0" ry="0" transform="translate(487.35 404.99)"/></g><path fill="transparent" stroke="transparent" d="M441.5 0h617v139h-617z"/></g></svg>